<svg width="28" height="25" viewBox="0 0 28 25" fill="none" xmlns="http://www.w3.org/2000/svg">
<path d="M23.375 8.25C22.2292 8.25 21.2552 7.84896 20.4531 7.04688C19.651 6.24479 19.25 5.27083 19.25 4.125C19.25 2.97917 19.651 2.00521 20.4531 1.20312C21.2552 0.401042 22.2292 0 23.375 0C24.5208 0 25.4948 0.401042 26.2969 1.20312C27.099 2.00521 27.5 2.97917 27.5 4.125C27.5 5.27083 27.099 6.24479 26.2969 7.04688C25.4948 7.84896 24.5208 8.25 23.375 8.25ZM2.75 24.75C1.99375 24.75 1.34635 24.4807 0.807813 23.9422C0.269271 23.4036 0 22.7563 0 22V5.5C0 4.74375 0.269271 4.09635 0.807813 3.55781C1.34635 3.01927 1.99375 2.75 2.75 2.75H16.6375C16.5458 3.20833 16.5 3.66667 16.5 4.125C16.5 4.58333 16.5458 5.04167 16.6375 5.5C16.7979 6.23333 17.0615 6.9151 17.4281 7.54531C17.7948 8.17552 18.2417 8.73125 18.7688 9.2125L13.75 12.375L2.75 5.5V8.25L13.75 15.125L21.0031 10.5875C21.3927 10.725 21.7823 10.8281 22.1719 10.8969C22.5615 10.9656 22.9625 11 23.375 11C24.1083 11 24.8302 10.8854 25.5406 10.6562C26.251 10.4271 26.9042 10.0833 27.5 9.625V22C27.5 22.7563 27.2307 23.4036 26.6922 23.9422C26.1536 24.4807 25.5063 24.75 24.75 24.75H2.75Z" fill="white"/>
</svg>
