<svg width="27" height="27" viewBox="0 0 27 27" fill="none" xmlns="http://www.w3.org/2000/svg">
<g clip-path="url(#clip0_20_2758)">
<path d="M13.5 0.891C20.4552 0.891 26.109 6.5448 26.109 13.5C26.109 20.4552 20.4552 26.109 13.5 26.109C6.5448 26.109 0.891 20.4552 0.891 13.5C0.891 6.5448 6.5448 0.891 13.5 0.891ZM13.5 0C6.0426 0 0 6.0426 0 13.5C0 20.9574 6.0426 27 13.5 27C20.9574 27 27 20.9574 27 13.5C27 6.0426 20.9574 0 13.5 0Z" fill="white"/>
<path d="M9.03419 14.5802L10.584 18.7922L17.4798 9.21802L9.03419 14.5802Z" fill="#DDDDDD"/>
<path d="M10.7568 15.5198L10.6056 18.8354L14.2452 15.752L10.7568 15.5198Z" fill="#B9B9B9"/>
<path d="M19.1646 7.6033L5.57819 12.7657C5.19479 12.9115 5.20559 13.4569 5.59439 13.5919L9.09899 14.7745L17.0802 9.6229L10.7622 15.5143L15.6816 19.2457C16.1946 19.6345 16.9344 19.3753 17.091 18.7489L19.7478 8.1109C19.8342 7.7653 19.4994 7.4683 19.17 7.5979L19.1646 7.6033Z" fill="white"/>
</g>
<defs>
<clipPath id="clip0_20_2758">
<rect width="27" height="27" fill="white"/>
</clipPath>
</defs>
</svg>
