<svg width="24" height="25" viewBox="0 0 24 25" fill="none" xmlns="http://www.w3.org/2000/svg">
<path d="M22.2672 10.115C22.0704 10.135 21.8736 10.145 21.6768 10.145C19.5168 10.145 17.5008 9.01 16.3152 7.125V17.4C16.3152 21.595 13.0512 24.995 9.02399 24.995C4.99679 24.995 1.73279 21.6 1.73279 17.405C1.73279 13.21 4.99679 9.81 9.02399 9.81C9.17759 9.81 9.32639 9.825 9.47519 9.835V13.58C9.32639 13.56 9.17759 13.535 9.02399 13.535C6.96959 13.535 5.30399 15.27 5.30399 17.41C5.30399 19.55 6.96959 21.285 9.02399 21.285C11.0784 21.285 12.8976 19.6 12.8976 17.455L12.9312 0H16.368C16.6944 3.21 19.176 5.72 22.2672 5.955V10.115Z" fill="white"/>
</svg>
