<svg width="48" height="35" viewBox="0 0 48 35" fill="none" xmlns="http://www.w3.org/2000/svg">
<path d="M24.0008 32.9171C32.5956 32.9171 39.5092 26.0442 39.5092 17.5C39.5092 8.95582 32.5956 2.08286 24.0008 2.08286C15.4061 2.08286 8.49243 8.95582 8.49243 17.5C8.49243 26.0442 15.4061 32.9171 24.0008 32.9171Z" fill="#2775CA"/>
<path d="M28.2655 19.9405C28.2655 17.6927 26.9086 16.9219 24.1946 16.5996C22.256 16.3422 21.8683 15.8288 21.8683 14.93C21.8683 14.0311 22.515 13.453 23.8069 13.453C24.97 13.453 25.6167 13.8384 25.9393 14.802C26.0044 14.9947 26.1983 15.1227 26.3921 15.1227H27.4265C27.6855 15.1227 27.8794 14.93 27.8794 14.6725V14.6077C27.6204 13.194 26.4573 12.1025 24.9716 11.9745V10.4328C24.9716 10.1753 24.7777 9.9826 24.4551 9.91939H23.4859C23.2269 9.91939 23.033 10.1121 22.9694 10.4328V11.9097C21.0309 12.1672 19.8026 13.4515 19.8026 15.0579C19.8026 17.1778 21.0945 18.0134 23.8084 18.3341C25.6183 18.6547 26.1998 19.0402 26.1998 20.0685C26.1998 21.0968 25.2957 21.8029 24.0674 21.8029C22.3879 21.8029 21.8063 21.0968 21.6124 20.1332C21.5473 19.8758 21.3535 19.7478 21.1596 19.7478H20.0616C19.8026 19.7478 19.6088 19.9405 19.6088 20.198V20.2628C19.8678 21.8692 20.9006 23.0255 23.033 23.3462V24.8879C23.033 25.1454 23.2269 25.3381 23.5494 25.4013H24.5187C24.7777 25.4013 24.9716 25.2086 25.0351 24.8879V23.3462C26.9721 23.024 28.2655 21.675 28.2655 19.9405Z" fill="white"/>
<path d="M20.7053 26.6855C15.665 24.8864 13.0798 19.2976 14.9547 14.3518C15.924 11.6538 18.0564 9.59871 20.7053 8.63514C20.9642 8.50718 21.093 8.31446 21.093 7.99224V7.09342C21.093 6.83596 20.9642 6.64324 20.7053 6.58003C20.6401 6.58003 20.5114 6.58003 20.4463 6.64478C14.308 8.57193 10.9474 15.0595 12.8859 21.1631C14.0491 24.7599 16.8282 27.5227 20.4463 28.679C20.7053 28.8069 20.9627 28.679 21.0278 28.4215C21.093 28.3567 21.093 28.2935 21.093 28.164V27.2652C21.093 27.071 20.8991 26.815 20.7053 26.6855ZM27.5538 6.64324C27.2948 6.51528 27.0373 6.64324 26.9722 6.90071C26.9071 6.96546 26.9071 7.02867 26.9071 7.15818V8.05699C26.9071 8.31446 27.1009 8.57039 27.2948 8.69989C32.335 10.4991 34.9202 16.0878 33.0453 21.0336C32.076 23.7316 29.9436 25.7867 27.2948 26.7503C27.0358 26.8782 26.9071 27.071 26.9071 27.3932V28.292C26.9071 28.5495 27.0358 28.7422 27.2948 28.8054C27.3599 28.8054 27.4886 28.8054 27.5538 28.7406C33.692 26.8135 37.0526 20.326 35.1141 14.2223C33.951 10.5623 31.1083 7.79953 27.5538 6.64324Z" fill="white"/>
</svg>
