<svg width="22" height="22" viewBox="0 0 22 22" fill="none" xmlns="http://www.w3.org/2000/svg">
<path d="M4.17083 16.3583C5.09167 15.6542 6.12083 15.099 7.25833 14.6927C8.39583 14.2865 9.5875 14.0833 10.8333 14.0833C12.0792 14.0833 13.2708 14.2865 14.4083 14.6927C15.5458 15.099 16.575 15.6542 17.4958 16.3583C18.1278 15.6181 18.6198 14.7785 18.9719 13.8396C19.324 12.9007 19.5 11.8986 19.5 10.8333C19.5 8.43194 18.6559 6.38715 16.9677 4.69896C15.2795 3.01076 13.2347 2.16667 10.8333 2.16667C8.43194 2.16667 6.38715 3.01076 4.69896 4.69896C3.01076 6.38715 2.16667 8.43194 2.16667 10.8333C2.16667 11.8986 2.34271 12.9007 2.69479 13.8396C3.04687 14.7785 3.53889 15.6181 4.17083 16.3583ZM10.8333 11.9167C9.76805 11.9167 8.86979 11.551 8.13854 10.8198C7.40729 10.0885 7.04167 9.19028 7.04167 8.125C7.04167 7.05972 7.40729 6.16146 8.13854 5.43021C8.86979 4.69896 9.76805 4.33333 10.8333 4.33333C11.8986 4.33333 12.7969 4.69896 13.5281 5.43021C14.2594 6.16146 14.625 7.05972 14.625 8.125C14.625 9.19028 14.2594 10.0885 13.5281 10.8198C12.7969 11.551 11.8986 11.9167 10.8333 11.9167ZM10.8333 21.6667C9.33472 21.6667 7.92639 21.3823 6.60833 20.8135C5.29028 20.2448 4.14375 19.4729 3.16875 18.4979C2.19375 17.5229 1.42188 16.3764 0.853125 15.0583C0.284375 13.7403 0 12.3319 0 10.8333C0 9.33472 0.284375 7.92639 0.853125 6.60833C1.42188 5.29028 2.19375 4.14375 3.16875 3.16875C4.14375 2.19375 5.29028 1.42188 6.60833 0.853125C7.92639 0.284375 9.33472 0 10.8333 0C12.3319 0 13.7403 0.284375 15.0583 0.853125C16.3764 1.42188 17.5229 2.19375 18.4979 3.16875C19.4729 4.14375 20.2448 5.29028 20.8135 6.60833C21.3823 7.92639 21.6667 9.33472 21.6667 10.8333C21.6667 12.3319 21.3823 13.7403 20.8135 15.0583C20.2448 16.3764 19.4729 17.5229 18.4979 18.4979C17.5229 19.4729 16.3764 20.2448 15.0583 20.8135C13.7403 21.3823 12.3319 21.6667 10.8333 21.6667Z" fill="#838383"/>
</svg>
