<svg width="25" height="25" viewBox="0 0 25 25" fill="none" xmlns="http://www.w3.org/2000/svg">
<g clip-path="url(#clip0_150_516)">
<path d="M19.105 4.47998C18.295 4.47998 17.645 5.13498 17.645 5.93998C17.645 6.74498 18.3 7.40498 19.105 7.40498C19.91 7.40498 20.565 6.74998 20.565 5.93998C20.565 5.12998 19.91 4.47998 19.105 4.47998Z" fill="white"/>
<path d="M12.605 6.35498C9.21999 6.35498 6.45999 9.10998 6.45999 12.5C6.45999 15.89 9.21499 18.645 12.605 18.645C15.995 18.645 18.75 15.89 18.75 12.5C18.75 9.10998 15.995 6.35498 12.605 6.35498ZM12.605 16.435C10.435 16.435 8.66999 14.67 8.66999 12.5C8.66999 10.33 10.435 8.56498 12.605 8.56498C14.775 8.56498 16.54 10.33 16.54 12.5C16.54 14.67 14.775 16.435 12.605 16.435Z" fill="white"/>
<path d="M17.48 24.97H7.52C3.39 24.97 0.0299988 21.61 0.0299988 17.48V7.52003C0.0299988 3.39003 3.39 0.0300293 7.52 0.0300293H17.48C21.61 0.0300293 24.975 3.39003 24.975 7.52503V17.485C24.975 21.615 21.615 24.98 17.48 24.98V24.97ZM7.52 2.37503C4.68 2.37503 2.375 4.68503 2.375 7.52003V17.48C2.375 20.32 4.685 22.625 7.52 22.625H17.48C20.32 22.625 22.625 20.315 22.625 17.48V7.52003C22.625 4.68003 20.315 2.37503 17.48 2.37503H7.52Z" fill="white"/>
</g>
<defs>
<clipPath id="clip0_150_516">
<rect width="25" height="25" fill="white"/>
</clipPath>
</defs>
</svg>
