<svg width="27" height="27" viewBox="0 0 27 27" fill="none" xmlns="http://www.w3.org/2000/svg">
<g clip-path="url(#clip0_396_1072)">
<path fill-rule="evenodd" clip-rule="evenodd" d="M27 13.1544C27 20.4174 21.0654 26.3034 13.7484 26.3034C6.4314 26.3034 9.2394 25.7094 7.3386 24.6672L0 27L2.3922 19.9422C1.1826 17.9604 0.4914 15.633 0.4914 13.149C0.4914 5.886 6.426 0 13.7484 0C21.0708 0 27 5.886 27 13.1544ZM13.7484 2.0952C7.6032 2.0952 2.6028 7.0524 2.6028 13.1544C2.6028 19.2564 3.3912 17.8146 4.725 19.6398L3.3318 23.7438L7.614 22.383C9.3744 23.5386 11.4804 24.2136 13.743 24.2136C19.8882 24.2136 24.8886 19.251 24.8886 13.1544C24.8886 7.0578 19.8882 2.0952 13.7484 2.0952ZM20.439 16.1838C20.358 16.0488 20.142 15.9678 19.818 15.8058C19.494 15.6438 17.8956 14.8662 17.5986 14.7582C17.3016 14.6502 17.0856 14.5962 16.8696 14.9202C16.6536 15.2442 16.0326 15.9678 15.8382 16.1838C15.6492 16.3998 15.4602 16.4268 15.1362 16.2648C14.8122 16.1028 13.7646 15.7626 12.5226 14.6664C11.556 13.8132 10.9026 12.7548 10.7136 12.4362C10.5246 12.1122 10.6974 11.9394 10.854 11.7774C10.9998 11.6316 11.178 11.3994 11.34 11.2158C11.502 11.0268 11.556 10.8918 11.664 10.6758C11.772 10.4598 11.718 10.2708 11.637 10.1142C11.556 9.9522 10.908 8.3646 10.6326 7.722C10.3626 7.0794 10.0926 7.101 9.9036 7.101C9.7146 7.101 9.3636 7.155 9.3636 7.155C9.3636 7.155 8.7102 7.236 8.4132 7.56C8.1162 7.884 7.2792 8.6616 7.2792 10.2492C7.2792 11.8368 8.4402 13.3704 8.6022 13.581C8.7642 13.797 10.8486 17.1558 14.1534 18.4464C17.4582 19.737 17.4582 19.305 18.0522 19.251C18.6462 19.197 19.9746 18.4734 20.2446 17.7174C20.5146 16.9668 20.5146 16.3188 20.4336 16.1838H20.439Z" fill="#838383"/>
</g>
<defs>
<clipPath id="clip0_396_1072">
<rect width="27" height="27" fill="white"/>
</clipPath>
</defs>
</svg>
