<svg width="17" height="17" viewBox="0 0 17 17" fill="none" xmlns="http://www.w3.org/2000/svg">
<g clip-path="url(#clip0_396_1063)">
<path d="M16.5988 8.12258H16.4968V4.90278C16.4968 4.68178 16.3166 4.50158 16.0956 4.50158H15.453V0.547383C15.453 0.435183 15.4054 0.326383 15.3204 0.248183C15.2354 0.173383 15.1232 0.135983 15.011 0.146183L1.75442 1.46198C0.839818 1.54358 0.108818 2.26438 0.010218 3.17218C0.010218 3.20278 0.00341797 3.23678 0.00341797 3.26738C0.00341797 3.26738 0.00341797 3.27078 0.00341797 3.27418C0.00341797 3.30818 0.00341797 3.34558 0.00341797 3.37618V14.6676C0.00341797 15.8712 0.982618 16.8538 2.18962 16.8538H16.099C16.32 16.8538 16.5002 16.6736 16.5002 16.4526V13.2362H16.6022C16.8232 13.2362 17.0034 13.056 17.0034 12.835V8.52378C17.0034 8.30278 16.8232 8.12258 16.6022 8.12258H16.5988ZM12.444 11.8592C12.4236 11.8388 12.4066 11.8184 12.3896 11.7946C12.3522 11.7504 12.3216 11.7062 12.2876 11.6586C12.24 11.5872 12.1992 11.5158 12.1618 11.4376C12.1244 11.3594 12.1142 11.3356 12.0938 11.2812C12.0258 11.0942 11.9884 10.8902 11.9884 10.6794C11.9884 9.90758 12.4916 9.24798 13.1886 9.01678C13.362 8.95898 13.549 8.92498 13.7428 8.92498H16.1976V12.4304H13.7428C13.2294 12.4304 12.767 12.2094 12.444 11.8558V11.8592ZM0.805818 3.32178C0.805818 3.32178 0.805818 3.32178 0.805818 3.31838C0.805818 3.29798 0.805818 3.27758 0.809218 3.26058C0.867018 2.73018 1.29202 2.31198 1.82582 2.26438C1.82582 2.26438 1.82582 2.26438 1.82922 2.26438L14.6472 0.989383V4.49818H1.92442C1.36682 4.49818 0.904418 4.08678 0.819418 3.55298C0.819418 3.54278 0.819418 3.53598 0.816018 3.52578C0.816018 3.51898 0.816018 3.50878 0.816018 3.50198C0.816018 3.49518 0.816018 3.48498 0.816018 3.47818C0.816018 3.46798 0.816018 3.45778 0.816018 3.44758C0.816018 3.44078 0.816018 3.43398 0.816018 3.42718C0.816018 3.41018 0.816018 3.39318 0.816018 3.37618C0.816018 3.35918 0.816018 3.33878 0.816018 3.31838L0.805818 3.32178ZM15.691 16.0514H2.18622C1.42462 16.0514 0.805818 15.4326 0.805818 14.671V4.94358C1.12202 5.17138 1.50962 5.30398 1.92782 5.30398H15.6944V8.12258H13.7462C12.6004 8.12258 11.628 8.88078 11.3016 9.92118C11.2948 9.94158 11.288 9.96198 11.2846 9.98238C11.2744 10.0232 11.2642 10.064 11.254 10.1048C11.2506 10.1252 11.2438 10.1456 11.2404 10.166C11.2302 10.2068 11.2234 10.251 11.2166 10.2918C11.1962 10.4176 11.186 10.5502 11.186 10.6794C11.186 10.8086 11.1962 10.9412 11.2166 11.067C11.2234 11.1078 11.2302 11.152 11.2404 11.1928C11.2438 11.2132 11.2506 11.2336 11.254 11.254C11.2642 11.2948 11.2744 11.3356 11.2846 11.3764C11.2914 11.3968 11.2948 11.4172 11.3016 11.4376C11.6246 12.478 12.597 13.2362 13.7462 13.2362H15.6944V16.048L15.691 16.0514Z" fill="white"/>
<path d="M13.719 9.8736C13.2736 9.8736 12.9132 10.234 12.9132 10.6794C12.9132 11.1248 13.2736 11.4852 13.719 11.4852C14.1644 11.4852 14.5248 11.1248 14.5248 10.6794C14.5248 10.234 14.1644 9.8736 13.719 9.8736Z" fill="white"/>
<path d="M2.00261 3.78079C2.01281 3.78079 2.02301 3.78079 2.03321 3.78079L13.7496 2.90699C13.9706 2.88999 14.1372 2.69619 14.1202 2.47519C14.1032 2.25419 13.9094 2.08759 13.6884 2.10459L1.97201 2.97839C1.75101 2.99539 1.58441 3.18919 1.60141 3.41019C1.61841 3.62099 1.79521 3.78419 2.00261 3.78419V3.78079Z" fill="white"/>
</g>
<defs>
<clipPath id="clip0_396_1063">
<rect width="17" height="17" fill="white"/>
</clipPath>
</defs>
</svg>
